<svg width="182" height="117" viewBox="0 0 182 117" fill="none" xmlns="http://www.w3.org/2000/svg">
<path d="M66.8437 93.1998C67.8225 92.4359 68.7901 92.3245 70.0126 92.3507C70.2725 92.3545 70.5324 92.3582 70.8002 92.3621C70.9367 92.3648 71.0733 92.3675 71.214 92.3703C74.2997 92.4272 77.3495 92.316 80.4214 92.018C80.6304 91.9978 80.8395 91.9775 81.0548 91.9566C84.0921 91.6476 87.0206 91.0928 89.9689 90.3183C90.142 90.2739 90.3151 90.2295 90.4934 90.1837C101.347 87.3679 110.276 80.4534 115.963 70.9442C119.106 65.5547 121.234 59.7461 122.925 53.7664C122.759 53.7783 122.759 53.7783 122.59 53.7905C121.461 53.8664 120.339 53.8947 119.208 53.8923C119.029 53.8923 118.851 53.8924 118.667 53.8924C118.083 53.8923 117.499 53.8912 116.915 53.8898C116.714 53.8894 116.514 53.8889 116.307 53.8884C115.245 53.8859 114.184 53.8824 113.123 53.8783C112.247 53.8751 111.372 53.8737 110.497 53.8741C109.435 53.8745 108.374 53.8717 107.313 53.8666C106.91 53.8652 106.507 53.8649 106.104 53.8657C105.54 53.8667 104.976 53.8635 104.412 53.8593C104.166 53.8612 104.166 53.8612 103.914 53.863C102.54 53.8456 101.317 53.5806 100.319 52.6009C99.8032 51.592 99.7374 50.8012 100.014 49.7097C100.558 48.9066 101.194 48.4145 101.963 47.8272C102.519 47.3967 103.039 46.9442 103.56 46.4727C104.424 45.6991 105.317 44.9794 106.233 44.2679C106.92 43.7303 107.579 43.1718 108.228 42.5882C109.082 41.82 109.966 41.108 110.873 40.4034C111.556 39.8694 112.21 39.3145 112.854 38.7344C113.756 37.9221 114.697 37.1764 115.658 36.4344C116.559 35.7347 117.41 34.9917 118.257 34.2282C118.84 33.7189 119.443 33.2393 120.055 32.7641C120.853 32.1439 121.623 31.5081 122.375 30.8321C123.228 30.0641 124.113 29.3522 125.019 28.6476C125.707 28.1101 126.366 27.5517 127.015 26.9681C127.868 26.1999 128.753 25.4879 129.66 24.7832C130.343 24.2492 130.997 23.6944 131.64 23.1143C132.543 22.302 133.484 21.5563 134.445 20.8143C135.346 20.1145 136.197 19.3716 137.043 18.608C137.729 18.0093 138.445 17.4516 139.164 16.8938C139.877 16.3377 140.553 15.7543 141.222 15.1466C143.323 13.2767 143.323 13.2767 144.597 13.2424C145.429 13.3372 146.07 13.5919 146.67 14.1777C147.215 14.8877 147.678 15.6369 148.138 16.4028C148.258 16.6002 148.377 16.7977 148.5 17.0011C148.862 17.6063 149.22 18.214 149.576 18.8226C150.33 20.1029 151.094 21.3758 151.88 22.6376C152.49 23.6182 153.07 24.6104 153.633 25.6181C154.328 26.8609 155.076 28.0622 155.846 29.2605C156.505 30.2921 157.113 31.3438 157.708 32.4125C158.246 33.3723 158.824 34.302 159.419 35.2283C160.172 36.399 160.876 37.5855 161.552 38.8005C162.09 39.7603 162.668 40.69 163.263 41.6163C164.015 42.787 164.719 43.9734 165.395 45.1885C165.934 46.1482 166.512 47.0779 167.107 48.0042C167.781 49.0528 168.423 50.1098 169.029 51.1982C169.726 52.4516 170.478 53.6633 171.252 54.8718C171.85 55.8071 172.422 56.7524 172.969 57.7175C173.441 58.5392 173.937 59.3464 174.431 60.1551C174.911 61.033 174.832 61.7877 174.67 62.7406C174.451 63.4194 174.111 63.7536 173.571 64.2057C172.203 64.8183 170.993 64.4861 169.654 64.0056C169.481 63.9462 169.308 63.8869 169.129 63.8257C168.564 63.6314 168 63.4327 167.437 63.2339C167.045 63.0985 166.653 62.9633 166.262 62.8284C165.459 62.5515 164.656 62.2728 163.855 61.9926C162.204 61.4158 160.549 60.8489 158.895 60.2816C158.409 60.1147 157.924 59.947 157.439 59.7791C157.289 59.7275 157.14 59.676 156.986 59.6228C156.709 59.527 156.431 59.4308 156.154 59.3344C155.489 59.1019 155.489 59.1019 154.802 58.9508C154.76 59.0812 154.719 59.2116 154.676 59.3459C152.986 64.5944 150.754 69.4317 147.805 74.1132C147.558 74.5066 147.316 74.9023 147.077 75.3007C143.216 81.6315 137.919 87.2973 132.087 91.8887C131.686 92.2063 131.297 92.5339 130.909 92.8668C128.99 94.4574 126.932 95.9271 124.746 97.1363C124.352 97.3561 123.963 97.5857 123.58 97.824C120.454 99.7683 116.998 101.204 113.506 102.38C113.372 102.426 113.237 102.472 113.099 102.52C98.2752 107.566 82.6881 105.016 68.799 98.3571C68.6539 98.2886 68.5088 98.2201 68.3592 98.1496C67.4028 97.6773 66.655 97.1857 66.1918 96.1893C65.9932 95.1069 66.2286 94.0968 66.8437 93.1998Z" fill="#FFEC42"/>
<path d="M116.392 25.5984C115.401 26.3471 114.432 26.4436 113.21 26.3987C112.95 26.3909 112.691 26.3831 112.423 26.3752C112.286 26.3704 112.15 26.3656 112.009 26.3606C108.925 26.2563 105.874 26.3206 102.798 26.5713C102.588 26.5884 102.379 26.6054 102.163 26.623C99.1216 26.8853 96.1849 27.395 93.2251 28.1241C93.0513 28.1659 92.8776 28.2076 92.6986 28.2506C81.8026 30.8993 72.769 37.6757 66.936 47.0964C63.7109 52.437 61.4935 58.2122 59.7114 64.1652C59.8774 64.1559 59.8774 64.1559 60.0466 64.1463C61.1767 64.0877 62.2986 64.0766 63.43 64.0965C63.6084 64.0992 63.7868 64.1019 63.9706 64.1046C64.5545 64.1137 65.1383 64.1238 65.7222 64.1342C65.9229 64.1377 66.1237 64.1412 66.3306 64.1449C67.3917 64.1638 68.4528 64.1836 69.5139 64.204C70.3891 64.2207 71.2642 64.2354 72.1395 64.2485C73.2008 64.2644 74.262 64.2835 75.3233 64.305C75.726 64.3126 76.1288 64.319 76.5316 64.3244C77.0955 64.3321 77.6593 64.344 78.2232 64.3568C78.4698 64.3588 78.4698 64.3588 78.7214 64.3607C80.0945 64.3993 81.3138 64.6831 82.2967 65.678C82.7967 66.6947 82.8504 67.4864 82.5568 68.5735C82.0008 69.3682 81.3577 69.8505 80.5793 70.4258C80.0167 70.8478 79.49 71.2923 78.962 71.7556C78.0864 72.5158 77.1818 73.2218 76.2554 73.9191C75.5597 74.4461 74.8922 74.9944 74.2346 75.568C73.3692 76.3229 72.4737 77.0212 71.5562 77.7119C70.8651 78.2353 70.2024 78.78 69.5504 79.3502C68.6356 80.1485 67.6828 80.8796 66.7104 81.6068C65.7988 82.2926 64.9368 83.0224 64.0787 83.7729C63.4877 84.2731 62.8769 84.7434 62.2582 85.2091C61.4507 85.8169 60.6704 86.4409 59.9089 87.1052C59.0436 87.8601 58.1482 88.5582 57.2309 89.2488C56.5353 89.7757 55.8677 90.3239 55.2102 90.8975C54.3448 91.6525 53.4493 92.3508 52.5318 93.0414C51.8407 93.5649 51.178 94.1096 50.526 94.6798C49.6112 95.4781 48.6584 96.2092 47.686 96.9364C46.7744 97.6222 45.9124 98.352 45.0543 99.1024C44.3595 99.6906 43.6353 100.237 42.9072 100.784C42.1862 101.329 41.501 101.902 40.8228 102.499C38.6933 104.337 38.6933 104.337 37.4191 104.351C36.5881 104.244 35.951 103.979 35.3604 103.384C34.8265 102.666 34.3748 101.91 33.9267 101.137C33.8103 100.938 33.6939 100.738 33.574 100.533C33.2212 99.9224 32.8733 99.3093 32.5265 98.6953C31.7919 97.4036 31.0475 96.1191 30.2815 94.8453C29.6867 93.8555 29.1212 92.8544 28.5741 91.8382C27.8987 90.5849 27.1691 89.3722 26.4177 88.1622C25.7746 87.1206 25.1822 86.0597 24.6041 84.982C24.0806 84.014 23.517 83.0755 22.9361 82.1402C22.2019 80.9581 21.5162 79.7609 20.859 78.5357C20.3355 77.5677 19.7719 76.6293 19.1911 75.6939C18.4569 74.5118 17.7712 73.3146 17.114 72.0894C16.5904 71.1214 16.0269 70.183 15.446 69.2476C14.7885 68.1889 14.1622 67.1221 13.5735 66.0245C12.8954 64.7606 12.1621 63.5375 11.4068 62.3172C10.8233 61.3728 10.2663 60.4188 9.73355 59.4454C9.27478 58.6166 8.79106 57.8018 8.30959 56.9856C7.84316 56.1005 7.93387 55.347 8.11051 54.3968C8.33959 53.7214 8.68426 53.3925 9.23139 52.9487C10.609 52.3573 11.8132 52.708 13.1446 53.209C13.317 53.2711 13.4894 53.3331 13.667 53.397C14.2293 53.6 14.7898 53.8073 15.3504 54.0147C15.7398 54.1562 16.1293 54.2973 16.519 54.4382C17.3175 54.7274 18.1154 55.0184 18.9127 55.3109C20.5547 55.913 22.2003 56.5053 23.8458 57.098C24.3287 57.2723 24.8114 57.4474 25.2939 57.6228C25.4424 57.6766 25.591 57.7305 25.744 57.786C26.02 57.8861 26.296 57.9865 26.5719 58.0871C27.2334 58.3298 27.2334 58.3298 27.9179 58.4915C27.9613 58.3617 28.0047 58.232 28.0495 58.0983C29.8202 52.8764 32.1262 48.074 35.1465 43.4384C35.3998 43.0488 35.648 42.6569 35.8932 42.2623C39.8511 35.9916 45.2341 30.4078 51.1362 25.9066C51.5422 25.5952 51.9355 25.2736 52.3287 24.9467C54.2727 23.3858 56.353 21.9479 58.5573 20.7724C58.9546 20.5587 59.3466 20.3351 59.733 20.1027C62.8893 18.2067 66.3667 16.8245 69.8757 15.702C70.011 15.6579 70.1463 15.6138 70.2858 15.5683C85.1848 10.7512 100.731 13.54 114.516 20.4117C114.66 20.4824 114.804 20.553 114.953 20.6259C115.902 21.1128 116.642 21.6159 117.09 22.6193C117.272 23.7045 117.021 24.7109 116.392 25.5984Z" fill="#0D7EFF"/>
</svg>
